# xmcd
#
# Track frame offsets: 
#        150
#        12735
#        32862
#        51905
#        79062
#        111182
#        136592
#        181247
#        216767
#        275947
#        307535
#
# Disc length: 4559 seconds
#
# Revision: 8
# Processed by: cddbd v1.5.2PL0 Copyright (c) Steve Scherf et al.
# Submitted via: ExactAudioCopyFreeDBPlugin 1.0
#
DISCID=9511cd0b
DTITLE=長渕剛 - いつかの少年 長渕剛 BEST COLLECTION Disc3
DYEAR=1900
DGENRE=Blues
TTITLE0=順子
TTITLE1=素顔
TTITLE2=巡恋歌'92
TTITLE3=シリアス
TTITLE4=豚(BUTA)
TTITLE5=RUN
TTITLE6=ガンジス
TTITLE7=MOTHER
TTITLE8=Captain of the ship
TTITLE9=人間
TTITLE10=いつかの少年
EXTD=
EXTT0=
EXTT1=
EXTT2=
EXTT3=
EXTT4=
EXTT5=
EXTT6=
EXTT7=
EXTT8=
EXTT9=
EXTT10=
PLAYORDER=
